<svg width="53" height="15" viewBox="0 0 53 15" fill="none" xmlns="http://www.w3.org/2000/svg">
<path d="M1.66046 6.625C1.10818 6.625 0.660461 7.07272 0.660461 7.625C0.660461 8.17728 1.10818 8.625 1.66046 8.625V6.625ZM52.3676 8.33211C52.7581 7.94158 52.7581 7.30842 52.3676 6.91789L46.0036 0.553932C45.6131 0.163408 44.9799 0.163408 44.5894 0.553932C44.1989 0.944456 44.1989 1.57762 44.5894 1.96815L50.2462 7.625L44.5894 13.2819C44.1989 13.6724 44.1989 14.3055 44.5894 14.6961C44.9799 15.0866 45.6131 15.0866 46.0036 14.6961L52.3676 8.33211ZM1.66046 8.625H51.6605V6.625H1.66046V8.625Z" fill="black"/>
</svg>
