<svg width="201" height="201" viewBox="0 0 201 201" fill="none" xmlns="http://www.w3.org/2000/svg">
<circle cx="100.976" cy="100.448" r="100" fill="#E6CCF5"/>
<circle cx="100.976" cy="100.448" r="86.2069" fill="#ECDE7D"/>
<path d="M90.976 120.484C91.168 122.02 91.52 123.268 92.032 124.228C92.608 125.124 93.152 125.7 93.664 125.956C94.24 126.212 94.752 126.532 95.2 126.916C95.648 127.3 95.872 127.78 95.872 128.356C95.872 130.468 92.256 131.524 85.024 131.524C82.08 131.524 79.872 131.172 78.4 130.468C76.992 129.764 76.096 128.58 75.712 126.916C73.28 130.244 69.216 131.908 63.52 131.908C58.144 131.908 53.76 130.66 50.368 128.164C47.04 125.668 45.376 122.052 45.376 117.316C45.376 112.708 47.04 109.124 50.368 106.564C53.696 103.94 57.792 102.628 62.656 102.628C66.432 102.628 69.664 103.428 72.352 105.028V104.74C71.712 98.404 70.976 94.116 70.144 91.876C69.376 89.636 67.84 88.516 65.536 88.516C64.064 88.516 62.88 89.188 61.984 90.532C61.088 91.876 60.416 93.348 59.968 94.948C59.584 96.548 58.816 98.02 57.664 99.364C56.512 100.708 54.976 101.38 53.056 101.38C51.072 101.38 49.44 100.804 48.16 99.652C46.944 98.5 46.336 96.996 46.336 95.14C46.336 91.428 48.192 88.644 51.904 86.788C55.616 84.868 60.16 83.908 65.536 83.908C71.936 83.908 77.216 85.668 81.376 89.188C85.6 92.644 88.096 97.348 88.864 103.3L90.976 120.484ZM68.8 127.012C70.272 127.012 71.456 126.308 72.352 124.9C73.312 123.492 73.792 121.892 73.792 120.1L73.408 115.684C72.768 110.372 70.784 107.716 67.456 107.716C65.984 107.716 64.8 108.324 63.904 109.54C63.008 110.692 62.56 112.26 62.56 114.244C62.56 117.828 63.104 120.868 64.192 123.364C65.344 125.796 66.88 127.012 68.8 127.012ZM133.387 83.908C139.339 83.908 144.587 85.956 149.131 90.052C153.739 94.084 156.043 99.748 156.043 107.044C156.043 114.404 153.803 120.388 149.323 124.996C144.907 129.604 139.595 131.908 133.387 131.908C128.651 131.908 124.779 130.5 121.771 127.684V128.548C121.771 130.212 120.939 131.044 119.275 131.044L104.779 130.948C103.307 130.948 102.571 130.34 102.571 129.124V128.74C102.571 127.972 103.211 126.82 104.491 125.284C105.771 123.684 106.411 122.052 106.411 120.388V76.708C106.411 75.044 105.611 73.508 104.011 72.1C102.475 70.628 101.707 69.508 101.707 68.74V68.356C101.707 67.332 102.571 66.436 104.299 65.668L119.083 58.852C120.299 58.212 121.355 58.084 122.251 58.468C123.147 58.852 123.595 59.716 123.595 61.06V86.788C126.091 84.868 129.355 83.908 133.387 83.908ZM131.851 127.204C136.715 127.204 139.147 123.172 139.147 115.108C139.147 111.268 138.827 107.428 138.187 103.588C137.611 99.748 136.523 96.292 134.923 93.22C133.387 90.148 131.531 88.612 129.355 88.612C127.627 88.612 126.219 89.38 125.131 90.916C124.107 92.388 123.595 94.436 123.595 97.06V115.684C123.595 118.628 124.427 121.284 126.091 123.652C127.819 126.02 129.739 127.204 131.851 127.204Z" fill="black"/>
</svg>
