<svg width="33" height="32" viewBox="0 0 33 32" fill="none" xmlns="http://www.w3.org/2000/svg">
<path d="M17.3188 2.80885L20.0628 11.7125H29.122C29.3447 11.7355 29.5564 11.8204 29.7327 11.9574C29.909 12.0943 30.0427 12.2778 30.1186 12.4868C30.1945 12.6957 30.2093 12.9217 30.1615 13.1386C30.1137 13.3556 30.0052 13.5548 29.8483 13.7133L22.4638 19.4557L25.2481 28.4794C25.3221 28.7153 25.3182 28.9685 25.2371 29.2021C25.1559 29.4357 25.0016 29.6375 24.7968 29.7781C24.5919 29.9188 24.3472 29.9909 24.0981 29.984C23.8491 29.9771 23.6087 29.8916 23.4121 29.7399L16.189 24.2376L8.96585 29.7599C8.7692 29.9116 8.52886 29.9971 8.27981 30.004C8.03075 30.0109 7.78599 29.9388 7.58114 29.7981C7.37629 29.6575 7.22205 29.4557 7.14087 29.2221C7.05969 28.9885 7.05581 28.7353 7.1298 28.4994L9.91413 19.4557L2.52961 13.8134C2.37277 13.6548 2.26422 13.4556 2.21641 13.2387C2.1686 13.0217 2.18348 12.7958 2.25933 12.5868C2.33519 12.3779 2.46895 12.1944 2.64524 12.0574C2.82153 11.9204 3.03321 11.8356 3.25595 11.8125H12.3151L15.0591 2.80885C15.1378 2.5734 15.2894 2.36853 15.4922 2.22334C15.695 2.07814 15.9388 2 16.189 2C16.4391 2 16.6829 2.07814 16.8857 2.22334C17.0885 2.36853 17.2401 2.5734 17.3188 2.80885V2.80885Z" fill="#37393D"/>
</svg>
